<svg xmlns="http://www.w3.org/2000/svg" xmlns:xlink="http://www.w3.org/1999/xlink" width="500" zoomAndPan="magnify" viewBox="0 0 375 374.999991" height="500" preserveAspectRatio="xMidYMid meet" version="1.0"><defs><g/><clipPath id="451149b648"><path d="M 89.914062 210.816406 L 182.804688 210.816406 L 182.804688 221.148438 L 89.914062 221.148438 Z M 89.914062 210.816406 " clip-rule="nonzero"/></clipPath><clipPath id="c8b698617b"><path d="M 194.894531 152.109375 L 287.789062 152.109375 L 287.789062 162.4375 L 194.894531 162.4375 Z M 194.894531 152.109375 " clip-rule="nonzero"/></clipPath></defs><g clip-path="url(#451149b648)"><path fill="#ffffff" d="M 89.914062 210.816406 L 182.800781 210.816406 L 182.800781 221.148438 L 89.914062 221.148438 Z M 89.914062 210.816406 " fill-opacity="1" fill-rule="nonzero"/></g><g clip-path="url(#c8b698617b)"><path fill="#ffffff" d="M 194.894531 152.109375 L 287.785156 152.109375 L 287.785156 162.4375 L 194.894531 162.4375 Z M 194.894531 152.109375 " fill-opacity="1" fill-rule="nonzero"/></g><g fill="#ffffff" fill-opacity="1"><g transform="translate(43.643202, 189.19698)"><g><path d="M 14.921875 0 L 24.34375 0 L 24.34375 -32.640625 L 37.5 -32.640625 L 37.5 -41.46875 L 1.78125 -41.46875 L 1.78125 -32.640625 L 14.921875 -32.640625 Z M 14.921875 0 "/></g></g></g><g fill="#ffffff" fill-opacity="1"><g transform="translate(95.17338, 189.19698)"><g><path d="M 0.53125 0 L 10.609375 0 L 13.390625 -7.171875 L 29.859375 -7.171875 L 32.640625 0 L 42.703125 0 L 26.234375 -41.46875 L 17 -41.46875 Z M 15.8125 -14.578125 L 21.625 -29.734375 L 27.484375 -14.578125 Z M 15.8125 -14.578125 "/></g></g></g><g fill="#ffffff" fill-opacity="1"><g transform="translate(150.67174, 189.19698)"><g><path d="M 4.96875 0 L 14.390625 0 L 14.390625 -14.28125 L 29.4375 -14.28125 L 29.4375 -22.5625 L 14.390625 -22.5625 L 14.390625 -32.9375 L 30.984375 -32.9375 L 30.984375 -41.46875 L 4.96875 -41.46875 Z M 4.96875 0 "/></g></g></g><g fill="#ffffff" fill-opacity="1"><g transform="translate(184.400032, 230.318231)"><g><path d="M 4.96875 0 L 14.390625 0 L 14.390625 -14.28125 L 29.4375 -14.28125 L 29.4375 -22.5625 L 14.390625 -22.5625 L 14.390625 -32.9375 L 30.984375 -32.9375 L 30.984375 -41.46875 L 4.96875 -41.46875 Z M 4.96875 0 "/></g></g></g><g fill="#ffffff" fill-opacity="1"><g transform="translate(230.244457, 230.318231)"><g><path d="M 0.53125 0 L 10.609375 0 L 13.390625 -7.171875 L 29.859375 -7.171875 L 32.640625 0 L 42.703125 0 L 26.234375 -41.46875 L 17 -41.46875 Z M 15.8125 -14.578125 L 21.625 -29.734375 L 27.484375 -14.578125 Z M 15.8125 -14.578125 "/></g></g></g><g fill="#ffffff" fill-opacity="1"><g transform="translate(285.742817, 230.318231)"><g><path d="M 4.96875 0 L 14.328125 0 L 14.328125 -25.40625 L 32.640625 0 L 40.640625 0 L 40.640625 -41.46875 L 31.28125 -41.46875 L 31.28125 -16.234375 L 12.96875 -41.46875 L 4.96875 -41.46875 Z M 4.96875 0 "/></g></g></g></svg>